<?xml version="1.0" encoding="UTF-8" standalone="no"?>
<svg width="174px" height="53px" viewBox="0 0 174 53" version="1.1" xmlns="http://www.w3.org/2000/svg" xmlns:xlink="http://www.w3.org/1999/xlink">
    <!-- Generator: Sketch 42 (36781) - http://www.bohemiancoding.com/sketch -->
    <title>Logo/white</title>
    <desc>Created with Sketch.</desc>
    <defs></defs>
    <g id="Symbols" stroke="none" stroke-width="1" fill="none" fill-rule="evenodd">
        <g id="Logo/white" fill-rule="nonzero" fill="#FFFFFF">
            <g id="Logo-CN-blue-01">
                <g id="Group" transform="translate(152.837209, 14.174419)">
                    <path d="M18.9197674,3.38953488 C16.9476744,1.47906977 14.2360465,0.308139535 11.4627907,0.246511628 L11.4627907,0.246511628 L11.4627907,0.246511628 L11.277907,0.246511628 L11.0930233,0.246511628 C8.25813953,0.308139535 5.60813953,1.41744186 3.5744186,3.38953488 C1.47906977,5.42325581 0.369767442,8.07325581 0.369767442,10.9081395 C0.369767442,13.6813953 1.54069767,16.3930233 3.5744186,18.4267442 C5.54651163,20.3988372 8.19651163,21.4465116 11.0313953,21.5081395 L11.2162791,21.5081395 L11.4011628,21.5081395 C14.2360465,21.4465116 16.8860465,20.3372093 18.9197674,18.4267442 C20.9534884,16.4546512 22.1244186,13.7430233 22.1244186,10.9081395 C22.1244186,8.07325581 20.9534884,5.36162791 18.9197674,3.38953488 Z M20.4604651,10.8465116 C20.4604651,13.25 19.4744186,15.4686047 17.7488372,17.194186 C16.0232558,18.9197674 13.6813953,19.844186 11.2162791,19.844186 C8.75116279,19.844186 6.47093023,18.9197674 4.68372093,17.194186 C2.95813953,15.4686047 1.97209302,13.25 1.97209302,10.8465116 C1.97209302,8.44302326 2.95813953,6.2244186 4.68372093,4.49883721 C6.40930233,2.77325581 8.75116279,1.84883721 11.2162791,1.84883721 C13.6813953,1.84883721 15.9616279,2.77325581 17.7488372,4.49883721 C19.4744186,6.2244186 20.4604651,8.50465116 20.4604651,10.8465116 Z" id="Shape"></path>
                    <path d="M11.4627907,5.17674419 L11.4627907,5.17674419 L11.4627907,5.17674419 L11.2162791,5.17674419 L11.0313953,5.17674419 C9.49069767,5.23837209 8.13488372,5.85465116 7.0255814,6.90232558 C5.91627907,7.95 5.3,9.42906977 5.3,10.9081395 C5.3,12.3872093 5.91627907,13.8046512 7.0255814,14.9755814 C8.07325581,16.0232558 9.49069767,16.577907 11.0313953,16.6395349 L11.2162791,16.6395349 L11.4011628,16.6395349 C14.605814,16.5162791 17.0709302,14.0511628 17.0709302,10.9081395 C17.0709302,7.82674419 14.605814,5.3 11.4627907,5.17674419 Z M15.4069767,10.8465116 C15.4069767,13.1267442 13.5581395,14.9755814 11.2162791,14.9755814 L11.1546512,14.9755814 C9.98372093,14.9755814 8.93604651,14.544186 8.19651163,13.8046512 C7.39534884,13.0034884 6.96395349,11.955814 6.96395349,10.9081395 C6.96395349,9.86046512 7.39534884,8.8127907 8.19651163,8.01162791 C8.99767442,7.21046512 10.0453488,6.77906977 11.1546512,6.77906977 C13.4965116,6.77906977 15.4069767,8.62790698 15.4069767,10.8465116 Z" id="Shape"></path>
                </g>
                <g id="Group" transform="translate(107.848837, 0.000000)">
                    <path d="M21.4465116,0.431395349 L15.2837209,0.431395349 L15.2837209,15.2837209 C14.8523256,15.0988372 14.4209302,14.9139535 13.927907,14.7906977 C13.1883721,14.6674419 12.3255814,14.4825581 11.3395349,14.4209302 L11.1546512,14.4209302 L10.9697674,14.4209302 C8.19651163,14.4825581 5.54651163,15.5918605 3.5127907,17.5639535 C1.47906977,19.5976744 0.308139535,22.2476744 0.308139535,25.0209302 C0.308139535,27.794186 1.47906977,30.505814 3.5127907,32.477907 C5.48488372,34.3883721 8.13488372,35.4976744 10.9697674,35.5593023 L11.1546512,35.5593023 L11.3395349,35.5593023 C12.2639535,35.5593023 13.0651163,35.4360465 13.927907,35.1895349 C14.3593023,35.0662791 14.7906977,34.9430233 15.2837209,34.6965116 L15.2837209,35.4976744 L21.9395349,35.4976744 L21.9395349,0.369767442 L21.4465116,0.369767442 L21.4465116,0.431395349 Z M15.7767442,32.7244186 C15.0372093,33.155814 14.2976744,33.4639535 13.4965116,33.6488372 C12.7569767,33.8337209 11.955814,33.9569767 11.1546512,33.9569767 C8.68953488,33.9569767 6.40930233,33.0325581 4.68372093,31.3069767 C2.95813953,29.5813953 1.97209302,27.3627907 1.97209302,24.9593023 C1.97209302,22.555814 2.95813953,20.3372093 4.68372093,18.6116279 C6.40930233,16.8860465 8.75116279,15.9616279 11.1546512,15.9616279 C11.955814,15.9616279 12.7569767,16.0848837 13.4965116,16.2697674 C14.2360465,16.4546512 14.9755814,16.7627907 15.7151163,17.1325581 C15.7767442,17.1325581 15.7767442,17.194186 15.7767442,17.194186 L16.9476744,18.0569767 L16.9476744,1.91046512 L20.2755814,1.91046512 L20.2755814,24.3430233 C20.2755814,24.3430233 20.2755814,24.527907 20.3372093,24.6511628 L20.3372093,25.2674419 C20.3372093,25.3906977 20.2755814,25.5755814 20.2755814,25.5755814 L20.2755814,33.8953488 L16.9476744,33.8953488 L16.9476744,32.1081395 L15.7767442,32.7244186 Z" id="Shape"></path>
                    <path d="M11.4011628,19.3511628 L11.4011628,19.3511628 L11.4011628,19.3511628 L11.1546512,19.3511628 L10.9697674,19.3511628 C7.76511628,19.4744186 5.3,21.9395349 5.3,25.0209302 C5.3,28.1023256 7.76511628,30.6290698 10.9697674,30.6906977 L11.1546512,30.6906977 L11.3395349,30.6906977 C14.4825581,30.5674419 16.9476744,28.1023256 16.9476744,25.0209302 C16.9476744,22.0011628 14.4825581,19.5360465 11.4011628,19.3511628 Z M15.2837209,25.0209302 C15.2837209,27.2395349 13.4348837,29.0883721 11.1546512,29.0883721 L11.0930233,29.0883721 C8.8127907,29.0883721 6.90232558,27.2395349 6.90232558,25.0209302 C6.90232558,22.8023256 8.75116279,20.9534884 11.0930233,20.9534884 C13.4348837,20.9534884 15.2837209,22.8023256 15.2837209,25.0209302 Z" id="Shape"></path>
                </g>
                <path d="M144.825581,22.494186 L146.489535,22.0011628 C146.181395,21.5081395 145.811628,21.0767442 145.380233,20.7069767 C144.332558,19.844186 142.976744,19.2895349 141.497674,19.2895349 L141.497674,19.2895349 C138.786047,19.2895349 136.505814,21.1383721 135.827907,23.5418605 C135.704651,23.9732558 135.643023,24.4662791 135.643023,24.9593023 L135.643023,24.9593023 L135.643023,25.205814 L137.306977,24.7127907 L144.825581,22.494186 Z M141.497674,20.8918605 L141.497674,20.8918605 C142.175581,20.8918605 142.79186,21.0151163 143.346512,21.3232558 L137.861628,22.9872093 C138.539535,21.7546512 139.956977,20.8918605 141.497674,20.8918605 Z" id="Shape"></path>
                <path d="M146.982558,27.0546512 L146.304651,26.7465116 L147.167442,26.5 L150.680233,25.4523256 L152.344186,24.9593023 C152.344186,24.4046512 152.282558,23.9116279 152.22093,23.3569767 C152.036047,22.3709302 151.727907,21.4465116 151.35814,20.5837209 C151.111628,20.0906977 150.865116,19.6593023 150.556977,19.227907 C148.584884,16.3930233 145.256977,14.4825581 141.497674,14.4825581 L141.497674,14.4825581 C135.519767,14.4825581 130.589535,19.227907 130.589535,25.0825581 L130.589535,25.0825581 C130.589535,30.9372093 135.519767,35.6825581 141.497674,35.6825581 L141.497674,35.6825581 C145.503488,35.6825581 149.016279,33.5255814 150.926744,30.3825581 C151.111628,30.0744186 151.296512,29.7046512 151.419767,29.3965116 L149.940698,28.6569767 L146.982558,27.0546512 Z M144.948837,27.3011628 C144.209302,28.4104651 142.915116,29.0883721 141.497674,29.0883721 L141.497674,29.0883721 C140.819767,29.0883721 140.203488,28.9651163 139.710465,28.6569767 L144.763953,27.1162791 L145.133721,26.9930233 C145.072093,27.177907 145.010465,27.2395349 144.948837,27.3011628 Z M141.497674,34.0186047 L141.497674,34.0186047 C136.444186,34.0186047 132.253488,29.9511628 132.253488,25.0209302 L132.253488,25.0209302 C132.253488,20.0906977 136.382558,16.0232558 141.497674,16.0232558 L141.497674,16.0232558 C144.517442,16.0232558 147.167442,17.4406977 148.893023,19.6593023 C149.201163,20.0906977 149.509302,20.522093 149.755814,21.0151163 C150.187209,21.877907 150.495349,22.8023256 150.618605,23.7883721 L147.352326,24.7744186 L145.688372,25.2674419 L144.27093,25.6988372 L142.730233,26.1918605 L138.169767,27.5476744 L136.505814,28.0406977 C136.813953,28.5337209 137.183721,28.9651163 137.615116,29.3348837 C138.662791,30.1976744 140.018605,30.7523256 141.436047,30.7523256 L141.436047,30.7523256 C143.531395,30.7523256 145.380233,29.7046512 146.366279,28.0406977 L149.324419,29.5197674 C147.845349,32.2313953 144.887209,34.0186047 141.497674,34.0186047 Z" id="Shape"></path>
                <path d="M106.862791,14.4825581 L100.761628,14.4825581 L100.761628,35.5593023 L107.355814,35.5593023 L107.355814,14.4825581 L106.862791,14.4825581 Z M105.753488,16.0848837 L105.753488,33.9569767 L102.425581,33.9569767 L102.425581,16.0848837 L103.904651,16.0848837 C103.904651,16.0848837 105.198837,16.0848837 105.753488,16.0848837 Z" id="Shape"></path>
                <path d="M106.184884,6.77906977 C105.69186,6.34767442 105.013953,6.03953488 104.336047,5.97790698 L104.336047,5.97790698 L104.336047,5.97790698 L104.151163,5.97790698 L103.966279,5.97790698 C103.103488,5.97790698 102.302326,6.28604651 101.686047,6.84069767 C101.069767,7.39534884 100.7,8.19651163 100.7,8.99767442 C100.7,9.79883721 101.069767,10.6 101.686047,11.1546512 C102.240698,11.7093023 103.04186,12.0174419 103.904651,12.0174419 L103.904651,12.0174419 L103.904651,12.0174419 L104.089535,12.0174419 L104.274419,12.0174419 L104.336047,11.955814 C105.075581,11.894186 105.69186,11.5860465 106.184884,11.0930233 C106.801163,10.5383721 107.17093,9.7372093 107.17093,8.93604651 C107.109302,8.07325581 106.801163,7.33372093 106.184884,6.77906977 Z M103.843023,10.4151163 C103.411628,10.4151163 103.04186,10.2918605 102.733721,9.98372093 C102.425581,9.6755814 102.240698,9.36744186 102.240698,8.93604651 C102.240698,8.56627907 102.425581,8.19651163 102.733721,7.88837209 C103.04186,7.58023256 103.473256,7.45697674 103.904651,7.45697674 L104.027907,7.45697674 C104.397674,7.45697674 104.767442,7.64186047 105.013953,7.88837209 C105.322093,8.19651163 105.506977,8.56627907 105.506977,8.93604651 C105.506977,9.30581395 105.322093,9.6755814 105.013953,9.98372093 C104.767442,10.2302326 104.459302,10.3534884 104.089535,10.4151163 L104.027907,10.4151163 L104.027907,10.4151163 C104.027907,10.4151163 103.904651,10.4151163 103.843023,10.4767442 C103.904651,10.4151163 103.843023,10.4151163 103.843023,10.4151163 Z" id="Shape"></path>
                <path d="M71.9197674,14.4825581 L71.9197674,15.7151163 C70.5023256,14.9755814 68.8383721,14.544186 67.1744186,14.4825581 L67.1744186,14.4825581 L66.927907,14.4825581 L66.6813953,14.4825581 L66.6813953,14.4825581 C60.8267442,14.605814 56.1430233,19.2895349 56.1430233,25.0209302 C56.1430233,30.7523256 60.8267442,35.4360465 66.6813953,35.5593023 L66.6813953,35.5593023 L66.927907,35.5593023 L67.1744186,35.5593023 L67.1744186,35.5593023 C68.8383721,35.4976744 70.4406977,35.0662791 71.9197674,34.3267442 L71.9197674,35.5593023 L77.7127907,35.5593023 L77.7127907,14.544186 L77.4662791,14.544186 L71.9197674,14.544186 L71.9197674,14.4825581 Z M66.927907,29.8895349 C64.1546512,29.8895349 61.9360465,27.7325581 61.9360465,25.0209302 C61.9360465,22.3093023 64.1546512,20.1523256 66.927907,20.1523256 C69.7011628,20.1523256 71.9197674,22.3093023 71.9197674,25.0209302 C71.9197674,27.7325581 69.7011628,29.8895349 66.927907,29.8895349 Z" id="Shape"></path>
                <path d="M38.455814,14.4825581 L38.455814,15.7151163 C37.0383721,14.9755814 35.3744186,14.544186 33.7104651,14.4825581 L33.7104651,14.4825581 L33.4639535,14.4825581 L33.2174419,14.4825581 L33.2174419,14.4825581 C27.3627907,14.6674419 22.6790698,19.2895349 22.6790698,25.0209302 C22.6790698,30.6906977 27.3627907,35.3744186 33.155814,35.5593023 L33.155814,35.5593023 L33.4023256,35.5593023 L33.6488372,35.5593023 L33.6488372,35.5593023 C35.3127907,35.4976744 36.9151163,35.127907 38.394186,34.3267442 L38.394186,35.4976744 L44.1872093,35.4976744 L44.1872093,14.4825581 L43.9406977,14.4825581 L38.455814,14.4825581 L38.455814,14.4825581 Z M33.4639535,29.8895349 C30.6906977,29.8895349 28.472093,27.7325581 28.472093,25.0209302 C28.472093,22.3093023 30.6906977,20.1523256 33.4639535,20.1523256 C36.2372093,20.1523256 38.455814,22.3093023 38.455814,25.0209302 C38.455814,27.6709302 36.1755814,29.8895349 33.4639535,29.8895349 Z" id="Shape"></path>
                <path d="M53.3081395,0.308139535 L52.8767442,0.61627907 L47.5151163,4.31395349 L47.5151163,14.544186 L44.9883721,14.544186 L44.9883721,20.2139535 L47.5151163,20.2139535 L47.5151163,33.155814 C47.7,34.5732558 48.6244186,35.5593023 49.7337209,35.5593023 L56.0197674,35.5593023 L56.0197674,33.2174419 L56.0813953,32.7244186 L56.0197674,32.2313953 L56.0197674,29.8895349 L53.3697674,29.8895349 L53.3697674,20.2139535 L56.0813953,20.2139535 L56.0813953,14.544186 L53.3697674,14.544186 C53.3081395,13.9895349 53.3081395,0.308139535 53.3081395,0.308139535 Z" id="Shape"></path>
                <path d="M16.0848837,0.554651163 L16.0848837,15.7151163 C14.6674419,14.9755814 13.0034884,14.544186 11.3395349,14.4825581 L11.3395349,14.4825581 L11.0930233,14.4825581 L10.8465116,14.4825581 L10.8465116,14.4825581 C4.99186047,14.605814 0.308139535,19.2895349 0.308139535,25.0209302 C0.308139535,30.7523256 4.99186047,35.4360465 10.8465116,35.5593023 L10.8465116,35.5593023 L11.0930233,35.5593023 L11.3395349,35.5593023 L11.3395349,35.5593023 C13.0034884,35.4976744 14.605814,35.0662791 16.0848837,34.3267442 L16.0848837,35.5593023 L21.877907,35.5593023 L21.877907,0.554651163 L21.6313953,0.554651163 L16.0848837,0.554651163 L16.0848837,0.554651163 Z M11.0930233,29.8895349 C8.38139535,29.8895349 6.1627907,27.7325581 6.1627907,25.0209302 C6.1627907,22.3093023 8.38139535,20.1523256 11.0930233,20.1523256 C13.8662791,20.1523256 16.0848837,22.3093023 16.0848837,25.0209302 C16.0848837,27.6709302 13.8662791,29.8895349 11.0930233,29.8895349 Z" id="Shape"></path>
                <path d="M99.4674419,14.4825581 L98.6046512,14.4825581 L95.2767442,14.4825581 L94.4139535,14.4825581 L93.5511628,14.4825581 L92.8732558,16.0848837 L89.1755814,24.6511628 L85.477907,16.0848837 L84.8,14.4825581 L83.9372093,14.4825581 L83.0744186,14.4825581 L79.7465116,14.4825581 L78.8837209,14.4825581 L78.0209302,14.4825581 L78.6988372,16.0848837 L85.7860465,32.6627907 L86.2174419,33.6488372 L86.3406977,33.9569767 L86.6488372,34.6965116 L87.0186047,35.5593023 L87.8813953,35.5593023 L88.744186,35.5593023 L89.6069767,35.5593023 L90.4697674,35.5593023 L91.3325581,35.5593023 L91.7023256,34.6965116 L92.0104651,33.9569767 L92.1337209,33.6488372 L92.5651163,32.6627907 L99.6523256,16.0848837 L100.330233,14.4825581 L99.4674419,14.4825581 Z M91.7023256,30.6290698 L91.2709302,31.6151163 L90.8395349,32.6011628 L90.2848837,33.8953488 L88.0662791,33.8953488 L87.5116279,32.6627907 L87.0802326,31.6767442 L86.6488372,30.6906977 L80.4244186,16.1465116 L83.7523256,16.1465116 L88.3127907,26.7465116 L88.744186,27.7325581 L89.1755814,28.7186047 L89.6069767,27.7325581 L90.0383721,26.7465116 L94.5988372,16.1465116 L97.9267442,16.1465116 L91.7023256,30.6290698 Z" id="Shape"></path>
                <polygon id="Shape" stroke="#FFFFFF" stroke-width="0.45" points="14.605814 52.5069767 4.19069767 52.5069767 4.19069767 51.8906977 8.68953488 51.8906977 8.68953488 42.3383721 9.30581395 42.3383721 9.30581395 46.0976744 14.1127907 46.0976744 14.1127907 46.7139535 9.30581395 46.7139535 9.30581395 51.8906977 14.605814 51.8906977"></polygon>
                <path d="M18.6116279,49.1174419 C18.0569767,50.4732558 17.3790698,51.705814 16.7011628,52.8151163 L16.1465116,52.3837209 C16.7627907,51.5209302 17.4406977,50.2883721 17.9953488,48.7476744 L18.6116279,49.1174419 Z M18.6116279,47.022093 L18.1802326,47.5151163 C17.6255814,46.9604651 16.9476744,46.4674419 16.2081395,46.0360465 L16.6395349,45.5430233 C17.4406977,46.0976744 18.0569767,46.5906977 18.6116279,47.022093 Z M18.9813953,43.8174419 L18.55,44.3104651 C18.0569767,43.8790698 17.4406977,43.3244186 16.577907,42.7697674 L17.0093023,42.2767442 C17.7488372,42.7697674 18.3651163,43.2627907 18.9813953,43.8174419 Z M26.5,44.1872093 L20.4604651,44.1872093 C20.0906977,44.6802326 19.7209302,45.1732558 19.2895349,45.6662791 L18.7348837,45.2965116 C19.5976744,44.372093 20.2755814,43.3860465 20.7686047,42.3383721 L21.3232558,42.5848837 C21.1383721,42.9546512 20.9534884,43.2627907 20.7686047,43.6325581 L26.4383721,43.6325581 L26.4383721,44.1872093 L26.5,44.1872093 Z M26.6232558,48.4395349 L25.6372093,48.4395349 L25.5139535,50.5965116 L26.4383721,50.5965116 L26.4383721,51.2127907 L25.4523256,51.2127907 C25.3906977,51.7674419 25.205814,52.1988372 24.8976744,52.4453488 C24.6511628,52.6918605 24.1581395,52.8767442 23.5418605,52.8767442 L22.6790698,52.8767442 L22.4325581,52.2604651 L23.85,52.2604651 C24.4046512,52.2604651 24.7127907,51.8906977 24.7744186,51.2127907 L19.4127907,51.2127907 C19.6593023,49.8569767 19.7825581,48.9325581 19.905814,48.4395349 L18.8581395,48.4395349 L18.8581395,47.8232558 L19.9674419,47.8232558 C20.0906977,46.8372093 20.2139535,45.9744186 20.2755814,45.2348837 L25.7604651,45.2348837 C25.7604651,46.4674419 25.6988372,47.3302326 25.6988372,47.8232558 L26.6848837,47.8232558 L26.6848837,48.4395349 L26.6232558,48.4395349 Z M25.0209302,48.4395349 L20.522093,48.4395349 C20.4604651,49.055814 20.3372093,49.7953488 20.2139535,50.5965116 L24.8976744,50.5965116 C24.8976744,49.8569767 24.9593023,49.1174419 25.0209302,48.4395349 Z M25.0825581,45.8511628 L20.8302326,45.8511628 C20.7686047,46.2209302 20.7069767,46.8988372 20.5837209,47.8232558 L25.0209302,47.8232558 L25.0825581,45.8511628 Z M23.7267442,49.7953488 L23.3569767,50.2883721 C22.8023256,49.8569767 22.2476744,49.5488372 21.7546512,49.2406977 L22.1244186,48.6860465 C22.6790698,49.1174419 23.2337209,49.4255814 23.7267442,49.7953488 Z M23.85,47.1453488 L23.4186047,47.6383721 C22.8639535,47.2069767 22.3709302,46.8988372 21.877907,46.6523256 L22.2476744,46.1593023 C22.9255814,46.4674419 23.4802326,46.7755814 23.85,47.1453488 Z" id="Shape" stroke="#FFFFFF" stroke-width="0.45"></path>
                <path d="M30.8139535,48.7476744 C30.2593023,50.4116279 29.5813953,51.7674419 28.7186047,52.8151163 L28.2255814,52.3837209 C29.0267442,51.4593023 29.7046512,50.1651163 30.2593023,48.4395349 L30.8139535,48.7476744 Z M30.8139535,47.0837209 L30.3825581,47.5767442 C29.8895349,47.022093 29.15,46.4674419 28.2255814,45.9127907 L28.5953488,45.4197674 C29.5813953,45.9744186 30.3209302,46.5906977 30.8139535,47.0837209 Z M31.3686047,43.8790698 L30.9988372,44.372093 C30.3825581,43.8174419 29.6430233,43.2627907 28.7802326,42.7697674 L29.15,42.2151163 C30.0127907,42.7697674 30.7523256,43.3244186 31.3686047,43.8790698 Z M38.7639535,50.2883721 L35.2511628,50.2883721 L35.2511628,52.8151163 L34.6348837,52.8151163 L34.6348837,50.2883721 L31.0604651,50.2883721 L31.0604651,49.672093 L34.6348837,49.672093 L34.6348837,47.8848837 L31.9232558,47.8848837 L31.9232558,47.2686047 L34.6348837,47.2686047 L34.6348837,45.4813953 L31.6151163,45.4813953 L31.6151163,44.8651163 L38.5790698,44.8651163 L38.5790698,45.4813953 L35.2511628,45.4813953 L35.2511628,47.2686047 L38.2709302,47.2686047 L38.2709302,47.8848837 L35.2511628,47.8848837 L35.2511628,49.672093 L38.7639535,49.672093 L38.7639535,50.2883721 Z M34.0186047,44.1255814 L33.4639535,44.4337209 C33.155814,43.755814 32.7244186,43.1395349 32.2313953,42.6465116 L32.7244186,42.2767442 C33.3406977,42.8930233 33.7104651,43.5093023 34.0186047,44.1255814 Z M37.7162791,42.5848837 C37.4081395,43.2011628 36.9767442,43.8790698 36.422093,44.5569767 L35.9290698,44.1872093 C36.422093,43.5709302 36.8534884,42.9546512 37.1616279,42.2767442 L37.7162791,42.5848837 Z" id="Shape" stroke="#FFFFFF" stroke-width="0.45"></path>
                <path d="M44.372093,44.3104651 L41.9069767,44.3104651 C41.722093,44.8651163 41.5988372,45.2965116 41.4139535,45.6046512 L44.0639535,45.6046512 L44.0639535,46.2209302 L42.5232558,46.2209302 L42.5232558,48.0697674 L44.372093,48.0697674 L44.372093,48.6860465 L42.5232558,48.6860465 L42.5232558,51.8290698 C42.9546512,51.5825581 43.5093023,51.2127907 44.1255814,50.7813953 L44.372093,51.3360465 C43.6325581,51.8906977 42.9546512,52.322093 42.2151163,52.6918605 L41.9069767,52.1988372 C41.9686047,52.0139535 41.9686047,51.8906977 41.9686047,51.8290698 L41.9686047,48.6860465 L40.5511628,48.6860465 L40.5511628,48.0697674 L41.9686047,48.0697674 L41.9686047,46.2209302 L41.105814,46.2209302 C40.8593023,46.6523256 40.7360465,46.8988372 40.7360465,46.9604651 L40.2430233,46.5290698 C40.8593023,45.5430233 41.4139535,44.1255814 41.8453488,42.2767442 L42.4616279,42.4616279 C42.2767442,43.077907 42.1534884,43.5093023 42.0918605,43.755814 L44.4337209,43.755814 L44.4337209,44.3104651 L44.372093,44.3104651 Z M50.4732558,52.8151163 L49.8569767,52.8151163 L49.8569767,52.1372093 L46.344186,52.1372093 L46.344186,52.8151163 L45.727907,52.8151163 L45.727907,48.4395349 C45.4197674,48.6244186 45.1732558,48.7476744 44.9267442,48.8709302 L44.5569767,48.377907 C45.727907,47.7616279 46.7139535,47.2069767 47.4534884,46.5906977 C46.9604651,46.0976744 46.5290698,45.6662791 46.0360465,45.4197674 L46.5290698,45.05 C46.8988372,45.3581395 47.3918605,45.727907 47.9465116,46.2209302 C48.6860465,45.4813953 49.3023256,44.8034884 49.672093,44.1872093 L46.5906977,44.1872093 C45.9744186,44.8651163 45.4197674,45.4813953 44.8651163,45.9127907 L44.4337209,45.4813953 C45.727907,44.372093 46.5906977,43.2627907 47.1453488,42.2151163 L47.7,42.4616279 C47.5767442,42.7697674 47.3302326,43.1395349 47.022093,43.5709302 L50.4116279,43.5709302 L50.4116279,44.1872093 C49.4872093,45.8511628 47.9465116,47.2686047 45.9127907,48.377907 L50.4732558,48.377907 L50.4732558,52.8151163 L50.4732558,52.8151163 Z M49.8569767,51.5825581 L49.8569767,48.9325581 L46.344186,48.9325581 L46.344186,51.5825581 L49.8569767,51.5825581 Z" id="Shape" stroke="#FFFFFF" stroke-width="0.45"></path>
                <path d="M55.4651163,42.5232558 C55.3418605,42.8930233 55.1569767,43.3244186 54.972093,43.8790698 L54.6639535,44.6802326 L54.6639535,52.8767442 L54.0476744,52.8767442 L54.0476744,45.8511628 C53.5546512,46.6523256 53.0616279,47.2686047 52.6918605,47.7 L52.3837209,47.1453488 C53.4930233,45.7895349 54.355814,44.1872093 54.9104651,42.3383721 L55.4651163,42.5232558 Z M62.8604651,44.3104651 L55.4651163,44.3104651 L55.4651163,43.694186 L58.8546512,43.694186 C58.7930233,43.3860465 58.6081395,43.0162791 58.3,42.5232558 L58.9162791,42.2767442 C59.1627907,42.7081395 59.3476744,43.2011628 59.5325581,43.694186 L62.922093,43.694186 L62.922093,44.3104651 L62.8604651,44.3104651 Z M62.305814,46.0976744 L55.9581395,46.0976744 L55.9581395,45.4813953 L62.305814,45.4813953 L62.305814,46.0976744 Z M62.305814,47.8848837 L55.9581395,47.8848837 L55.9581395,47.2686047 L62.305814,47.2686047 L62.305814,47.8848837 Z M62.1209302,52.8767442 L61.5046512,52.8767442 L61.5046512,52.322093 L56.6976744,52.322093 L56.6976744,52.8767442 L56.0813953,52.8767442 L56.0813953,49.1174419 L62.1209302,49.1174419 L62.1209302,52.8767442 Z M61.5046512,51.705814 L61.5046512,49.7337209 L56.6976744,49.7337209 L56.6976744,51.705814 L61.5046512,51.705814 Z" id="Shape" stroke="#FFFFFF" stroke-width="0.45"></path>
                <path d="M66.7430233,49.7953488 C66.3116279,50.5965116 65.8186047,51.4593023 65.1406977,52.322093 L64.5860465,51.9523256 C65.1406977,51.3360465 65.6953488,50.5348837 66.25,49.4872093 L66.7430233,49.7953488 Z M73.6453488,48.8709302 L65.9418605,48.8709302 L65.9418605,43.3860465 L68.222093,43.3860465 C68.4069767,43.077907 68.6534884,42.7081395 68.9,42.1534884 L69.5162791,42.3383721 C69.3313953,42.7081395 69.1465116,43.077907 68.9616279,43.3860465 L73.6453488,43.3860465 L73.6453488,48.8709302 L73.6453488,48.8709302 Z M72.9674419,44.9883721 L72.9674419,44.0023256 L66.5581395,44.0023256 L66.5581395,44.9883721 L72.9674419,44.9883721 Z M72.9674419,46.5906977 L72.9674419,45.6046512 L66.5581395,45.6046512 L66.5581395,46.5906977 L72.9674419,46.5906977 Z M72.9674419,48.2546512 L72.9674419,47.2069767 L66.5581395,47.2069767 L66.5581395,48.2546512 L72.9674419,48.2546512 Z M72.6593023,51.027907 C72.5976744,51.4593023 72.5360465,51.8290698 72.4127907,52.0755814 C72.2895349,52.322093 72.1046512,52.5069767 71.9197674,52.5686047 C71.7348837,52.6302326 71.2418605,52.6918605 70.5639535,52.6918605 C69.7011628,52.6918605 69.0232558,52.6918605 68.6534884,52.6302326 C68.2837209,52.5686047 67.9755814,52.5069767 67.8523256,52.322093 C67.7290698,52.1372093 67.6674419,51.9523256 67.6674419,51.705814 L67.6674419,49.4255814 L68.2837209,49.4255814 L68.2837209,51.7674419 C68.2837209,51.8290698 68.2837209,51.8906977 68.3453488,51.9523256 C68.4069767,52.0139535 68.4686047,52.0139535 68.5302326,52.0755814 C68.5918605,52.0755814 68.8383721,52.0755814 69.3313953,52.1372093 L70.6872093,52.1372093 C71.2418605,52.1372093 71.55,52.1372093 71.6732558,52.0755814 C71.7965116,52.0139535 71.8581395,51.8906977 71.9197674,51.705814 C71.9813953,51.5209302 72.0430233,51.2127907 72.1046512,50.7813953 L72.6593023,51.027907 Z M71.2418605,50.5965116 L70.6872093,50.9046512 C70.3790698,50.4116279 69.9476744,49.9186047 69.4546512,49.3639535 L69.9476744,48.994186 C70.4406977,49.5488372 70.872093,50.1034884 71.2418605,50.5965116 Z M74.9395349,52.0755814 L74.3848837,52.4453488 C73.9534884,51.644186 73.3988372,50.8430233 72.7209302,50.0418605 L73.2139535,49.7337209 C73.9534884,50.4116279 74.5081395,51.2127907 74.9395349,52.0755814 Z" id="Shape" stroke="#FFFFFF" stroke-width="0.45"></path>
                <path d="M81.4104651,42.7081395 C80.9174419,42.9546512 80.3011628,43.1395349 79.5616279,43.3244186 L79.5616279,45.2348837 L81.3488372,45.2348837 L81.3488372,45.8511628 L79.5616279,45.8511628 L79.5616279,46.4674419 C80.3011628,47.2069767 80.9174419,47.8848837 81.3488372,48.5627907 L80.9174419,49.055814 C80.5476744,48.5011628 80.1162791,47.8848837 79.5616279,47.3302326 L79.5616279,52.7534884 L78.9453488,52.7534884 L78.9453488,47.1453488 C78.4523256,48.1930233 77.7744186,49.1790698 76.9732558,50.1651163 L76.5418605,49.6104651 C77.5895349,48.377907 78.3906977,47.1453488 78.8837209,45.8511628 L76.6034884,45.8511628 L76.6034884,45.2348837 L78.9453488,45.2348837 L78.9453488,43.5093023 C78.6372093,43.5709302 78.0209302,43.694186 77.2197674,43.8174419 L76.85,43.2011628 C78.4523256,43.0162791 79.8081395,42.7081395 80.9790698,42.2151163 L81.4104651,42.7081395 Z M87.1418605,49.6104651 L85.9093023,49.7953488 L85.9093023,52.8151163 L85.2930233,52.8151163 L85.2930233,49.9186047 L81.3488372,50.5348837 L81.2872093,49.9186047 L85.2930233,49.3023256 L85.2930233,42.3383721 L85.9093023,42.3383721 L85.9093023,49.1790698 L87.1418605,48.994186 L87.1418605,49.6104651 Z M84.2453488,48.0697674 L83.8139535,48.5627907 C83.3209302,47.8848837 82.5813953,47.1453488 81.5953488,46.4674419 L81.9651163,45.9744186 C82.9511628,46.5906977 83.6906977,47.3302326 84.2453488,48.0697674 Z M84.5534884,44.8034884 L84.1837209,45.3581395 C83.505814,44.6186047 82.827907,44.0023256 82.0267442,43.5093023 L82.3965116,43.0162791 C83.1360465,43.4476744 83.8139535,44.0639535 84.5534884,44.8034884 Z" id="Shape" stroke="#FFFFFF" stroke-width="0.45"></path>
                <path d="M92.5651163,47.5151163 C92.1337209,47.7 91.5790698,47.9465116 91.0244186,48.1313953 L91.0244186,52.0139535 C91.0244186,52.2604651 90.9627907,52.4453488 90.777907,52.6302326 C90.5930233,52.8151163 90.1,52.8767442 89.2372093,52.8151163 L88.9906977,52.1372093 L89.6686047,52.1372093 C89.9767442,52.1372093 90.2232558,52.1372093 90.2848837,52.0755814 C90.3465116,52.0139535 90.4081395,51.9523256 90.4081395,51.8290698 L90.4081395,48.377907 C89.9767442,48.5011628 89.422093,48.6860465 88.805814,48.8709302 L88.5593023,48.3162791 C89.2372093,48.1313953 89.8534884,47.9465116 90.3465116,47.7616279 L90.3465116,45.05 L88.6209302,45.05 L88.6209302,44.4337209 L90.3465116,44.4337209 L90.3465116,42.3383721 L90.9627907,42.3383721 L90.9627907,44.4337209 L92.3186047,44.4337209 L92.3186047,45.05 L90.9627907,45.05 L90.9627907,47.5151163 C91.2709302,47.3918605 91.7639535,47.2069767 92.3186047,46.9604651 L92.5651163,47.5151163 Z M99.2209302,52.322093 L98.8511628,52.8767442 C97.5569767,52.322093 96.5709302,51.705814 95.8313953,51.027907 C94.7837209,51.7674419 93.6127907,52.322093 92.2569767,52.8767442 L92.2569767,52.8767442 L92.2569767,52.8767442 C92.2569767,52.8767442 92.1953488,52.8151163 92.1337209,52.7534884 C92.072093,52.6918605 92.0104651,52.5686047 91.8872093,52.322093 C93.1197674,51.9523256 94.2906977,51.3976744 95.4,50.6581395 C94.5988372,49.7337209 93.9825581,48.6244186 93.6127907,47.3302326 L93.0581395,47.3302326 L93.0581395,46.7139535 L95.5232558,46.7139535 L95.5232558,44.7418605 L92.8732558,44.7418605 L92.8732558,44.1255814 L95.5232558,44.1255814 L95.5232558,42.3383721 L96.1395349,42.3383721 L96.1395349,44.1255814 L98.9127907,44.1255814 L98.9127907,44.7418605 L96.1395349,44.7418605 L96.1395349,46.7139535 L98.3581395,46.7139535 L98.3581395,47.3302326 C98.1116279,48.1930233 97.8034884,48.9325581 97.4337209,49.4255814 C97.0639535,49.9186047 96.694186,50.35 96.2011628,50.7197674 C97.0023256,51.2744186 97.9883721,51.8290698 99.2209302,52.322093 Z M97.8034884,47.2686047 L94.2906977,47.2686047 C94.6604651,48.4395349 95.1534884,49.4255814 95.8930233,50.2267442 C96.8174419,49.4872093 97.4953488,48.5011628 97.8034884,47.2686047 Z" id="Shape" stroke="#FFFFFF" stroke-width="0.45"></path>
                <path d="M104.644186,51.9523256 C104.644186,52.3837209 104.397674,52.6918605 103.966279,52.7534884 C103.719767,52.8151163 103.411628,52.8151163 102.980233,52.7534884 L102.733721,52.1372093 L103.65814,52.1372093 C103.843023,52.1372093 103.966279,52.0139535 103.966279,51.7674419 L103.966279,48.0697674 C103.65814,48.4395349 103.103488,48.994186 102.425581,49.7337209 L102.117442,49.3639535 C101.932558,50.7813953 101.686047,51.9523256 101.316279,52.7534884 L100.823256,52.322093 C101.377907,51.027907 101.686047,49.3023256 101.686047,47.3302326 L101.686047,42.5848837 L104.644186,42.5848837 L104.644186,51.9523256 L104.644186,51.9523256 Z M104.027907,47.1453488 L104.027907,46.2209302 L103.65814,46.5290698 C103.35,46.1593023 102.918605,45.727907 102.240698,45.1732558 L102.240698,47.4534884 C102.240698,48.0081395 102.240698,48.6244186 102.17907,49.1174419 C102.733721,48.6244186 103.35,47.9465116 104.027907,47.1453488 Z M104.027907,43.2011628 L102.240698,43.2011628 L102.240698,44.9267442 L102.548837,44.6186047 C103.04186,44.9883721 103.534884,45.4197674 104.027907,45.9744186 L104.027907,43.2011628 Z M111.238372,52.2604651 L110.868605,52.8767442 C109.759302,52.5069767 108.834884,52.0139535 107.972093,51.3976744 C107.232558,51.9523256 106.30814,52.4453488 105.260465,52.8151163 L104.890698,52.2604651 C105.938372,51.9523256 106.801163,51.5209302 107.602326,50.9662791 C106.862791,50.2267442 106.246512,49.2406977 105.69186,48.0081395 L105.260465,48.0081395 L105.260465,47.3918605 L110.313953,47.3918605 L110.313953,48.0081395 C109.944186,49.1790698 109.389535,50.1651163 108.526744,51.027907 C109.266279,51.5825581 110.190698,52.0139535 111.238372,52.2604651 Z M111.115116,46.5906977 L109.697674,46.5906977 C109.512791,46.5906977 109.327907,46.5290698 109.143023,46.344186 C109.019767,46.1593023 108.95814,45.9744186 108.95814,45.7895349 L108.95814,43.2011628 L106.801163,43.2011628 L106.801163,43.5709302 C106.801163,44.3104651 106.677907,44.9883721 106.493023,45.5430233 C106.30814,46.1593023 105.938372,46.6523256 105.506977,47.022093 L104.952326,46.6523256 C105.445349,46.344186 105.753488,45.8511628 106,45.2965116 C106.123256,44.8651163 106.246512,44.3104651 106.246512,43.694186 L106.246512,42.5848837 L109.636047,42.5848837 L109.636047,45.6662791 C109.636047,45.727907 109.697674,45.8511628 109.759302,45.9127907 C109.82093,45.9744186 109.882558,46.0360465 109.944186,46.0360465 L111.176744,46.0360465 L111.176744,46.5906977 L111.115116,46.5906977 Z M109.636047,48.0081395 L106.30814,48.0081395 C106.801163,49.1174419 107.355814,49.9802326 108.033721,50.5965116 C108.711628,49.9802326 109.266279,49.1174419 109.636047,48.0081395 Z" id="Shape" stroke="#FFFFFF" stroke-width="0.45"></path>
                <path d="M116.230233,42.4616279 C116.106977,42.8313953 115.860465,43.2627907 115.613953,43.8174419 L115.244186,44.6186047 L115.244186,52.7534884 L114.627907,52.7534884 L114.627907,45.6662791 C114.073256,46.5290698 113.518605,47.1453488 113.025581,47.5767442 L112.717442,46.9604651 C113.826744,45.9744186 114.751163,44.4337209 115.613953,42.2767442 L116.230233,42.4616279 Z M118.695349,42.4616279 C118.017442,44.1872093 117.216279,45.5430233 116.29186,46.4674419 L115.737209,46.0976744 C116.6,45.2965116 117.401163,44.0023256 118.07907,42.2767442 L118.695349,42.4616279 Z M122.393023,46.7139535 L122.393023,47.7616279 C122.393023,48.8093023 122.331395,49.7337209 122.269767,50.5965116 C122.146512,51.4593023 122.084884,51.9523256 121.961628,52.1988372 C121.838372,52.3837209 121.653488,52.5686047 121.468605,52.6918605 C121.222093,52.8151163 120.852326,52.8767442 120.297674,52.8767442 C120.051163,52.8767442 119.804651,52.8767442 119.619767,52.8151163 L119.434884,52.1988372 C119.804651,52.2604651 120.112791,52.2604651 120.482558,52.2604651 C120.913953,52.2604651 121.160465,52.1988372 121.283721,52.1372093 C121.406977,52.0755814 121.530233,51.8906977 121.59186,51.705814 C121.653488,51.5209302 121.715116,50.9662791 121.838372,49.9802326 C121.9,49.055814 121.961628,48.1930233 121.9,47.3918605 L119.496512,47.3918605 C119.373256,48.5627907 119.065116,49.6104651 118.572093,50.4732558 C118.07907,51.3360465 117.277907,52.1372093 116.230233,52.8767442 L115.798837,52.3837209 C117.709302,51.1511628 118.756977,49.4872093 118.818605,47.3918605 L116.476744,47.3918605 L116.476744,46.7755814 L122.393023,46.7755814 L122.393023,46.7139535 Z M123.37907,45.9744186 L122.947674,46.4674419 C122.023256,45.7895349 121.222093,44.6802326 120.544186,43.1395349 L119.619767,43.1395349 L119.619767,42.5232558 L120.913953,42.5232558 C121.653488,44.1255814 122.454651,45.2965116 123.37907,45.9744186 Z" id="Shape" stroke="#FFFFFF" stroke-width="0.45"></path>
                <path d="M135.396512,44.3104651 L129.418605,44.3104651 C129.110465,44.8034884 128.802326,45.2348837 128.555814,45.6662791 L134.472093,45.6662791 L134.472093,51.9523256 C134.472093,52.322093 134.348837,52.5686047 134.163953,52.6918605 C133.917442,52.8151163 133.424419,52.8767442 132.561628,52.8767442 C132.253488,52.8767442 131.945349,52.8767442 131.637209,52.8151163 L131.32907,52.1988372 C131.698837,52.2604651 132.068605,52.2604651 132.5,52.2604651 C133.177907,52.2604651 133.547674,52.2604651 133.67093,52.1988372 C133.794186,52.1372093 133.855814,52.0139535 133.855814,51.8906977 L133.855814,50.35 L127.939535,50.35 C127.754651,51.3976744 127.261628,52.2604651 126.583721,53 L125.967442,52.6302326 C126.953488,51.7674419 127.446512,50.1651163 127.446512,47.9465116 L127.446512,47.0837209 C126.645349,47.8848837 125.967442,48.4395349 125.289535,48.9325581 L124.796512,48.4395349 C126.460465,47.3302326 127.754651,45.9744186 128.67907,44.4337209 L124.919767,44.4337209 L124.919767,43.8174419 L129.048837,43.8174419 C129.295349,43.3860465 129.54186,42.9546512 129.726744,42.4 L130.343023,42.5848837 C130.096512,43.077907 129.911628,43.5093023 129.726744,43.8174419 L135.334884,43.8174419 L135.334884,44.3104651 L135.396512,44.3104651 Z M133.794186,49.672093 L133.794186,48.2546512 L128.062791,48.2546512 C128.062791,48.8709302 128.062791,49.3639535 128.001163,49.672093 L133.794186,49.672093 Z M133.794186,47.6383721 L133.794186,46.2825581 L128.062791,46.2825581 L128.062791,47.6383721 L133.794186,47.6383721 Z" id="Shape" stroke="#FFFFFF" stroke-width="0.45"></path>
                <path d="M139.772093,45.9744186 C140.45,47.022093 140.819767,47.9465116 140.819767,48.8093023 C140.819767,49.3023256 140.696512,49.672093 140.388372,49.9802326 C140.080233,50.2883721 139.525581,50.35 138.724419,50.35 L138.477907,49.7337209 L139.094186,49.7337209 C139.525581,49.7337209 139.833721,49.672093 139.956977,49.5488372 C140.080233,49.4255814 140.203488,49.1790698 140.203488,48.7476744 C140.203488,47.8848837 139.833721,47.022093 139.094186,46.1593023 C139.340698,45.4813953 139.648837,44.4953488 140.018605,43.2627907 L138.10814,43.2627907 L138.10814,52.8151163 L137.49186,52.8151163 L137.49186,42.6465116 L140.573256,42.6465116 L140.573256,43.2627907 C140.511628,43.8790698 140.203488,44.8034884 139.772093,45.9744186 Z M146.736047,47.3918605 L142.360465,47.3918605 L142.360465,52.0755814 C142.976744,51.8906977 143.654651,51.644186 144.332558,51.3360465 L144.394186,52.0139535 C143.593023,52.322093 142.79186,52.6302326 141.92907,52.8767442 L141.62093,52.2604651 C141.682558,52.1372093 141.744186,52.0755814 141.744186,51.9523256 L141.744186,42.6465116 L146.736047,42.6465116 L146.736047,47.3918605 Z M146.119767,44.6186047 L146.119767,43.2011628 L142.422093,43.2011628 L142.422093,44.6186047 L146.119767,44.6186047 Z M146.119767,46.7755814 L146.119767,45.2348837 L142.422093,45.2348837 L142.422093,46.7755814 L146.119767,46.7755814 Z M147.660465,52.3837209 L147.22907,52.9383721 C145.503488,51.8290698 144.394186,50.35 143.839535,48.4395349 L144.455814,48.1930233 C144.57907,48.6860465 144.825581,49.2406977 145.072093,49.7337209 C145.811628,49.2406977 146.427907,48.7476744 146.92093,48.1313953 L147.413953,48.5627907 C146.797674,49.1790698 146.119767,49.7337209 145.380233,50.2267442 C145.811628,51.027907 146.612791,51.705814 147.660465,52.3837209 Z" id="Shape" stroke="#FFFFFF" stroke-width="0.45"></path>
                <path d="M153.268605,42.5232558 C152.590698,44.6802326 151.296512,46.4674419 149.447674,47.7616279 L148.954651,47.2686047 C150.74186,46.0976744 151.912791,44.4337209 152.652326,42.2767442 L153.268605,42.5232558 Z M158.69186,52.6302326 L158.137209,52.9383721 C157.890698,52.322093 157.644186,51.8290698 157.397674,51.3976744 C155.117442,52.0139535 152.898837,52.3837209 150.618605,52.5686047 L150.433721,51.9523256 C151.666279,50.5348837 152.837209,48.4395349 153.946512,45.7895349 L154.562791,46.0360465 C153.576744,48.4395349 152.467442,50.35 151.35814,51.8290698 C152.898837,51.705814 154.809302,51.3976744 157.027907,50.7813953 C156.65814,50.1651163 156.165116,49.4255814 155.548837,48.5627907 L156.103488,48.2546512 C157.274419,49.8569767 158.137209,51.2744186 158.69186,52.6302326 Z M159.616279,47.2069767 L159.184884,47.7616279 C157.767442,46.8372093 156.596512,45.2965116 155.733721,43.1395349 L154.932558,43.1395349 L154.932558,42.4616279 L156.226744,42.4616279 C156.966279,44.6186047 158.075581,46.2209302 159.616279,47.2069767 Z" id="Shape" stroke="#FFFFFF" stroke-width="0.45"></path>
                <path d="M171.07907,51.9523256 C171.07907,52.2604651 171.017442,52.5069767 170.832558,52.6302326 C170.647674,52.7534884 170.216279,52.8151163 169.415116,52.8151163 C169.106977,52.8151163 168.675581,52.8151163 168.12093,52.7534884 L167.874419,52.0755814 C168.552326,52.1372093 169.106977,52.1372093 169.476744,52.1372093 C169.90814,52.1372093 170.154651,52.1372093 170.216279,52.0755814 C170.339535,52.0139535 170.339535,51.8906977 170.339535,51.7674419 L170.339535,43.1395349 L161.095349,43.1395349 L161.095349,42.5232558 L171.017442,42.5232558 L171.017442,51.9523256 L171.07907,51.9523256 Z M169.168605,45.3581395 L161.526744,45.3581395 L161.526744,44.7418605 L169.106977,44.7418605 L169.106977,45.3581395 L169.168605,45.3581395 Z M168.305814,50.5965116 L162.266279,50.5965116 L162.266279,46.9604651 L168.305814,46.9604651 L168.305814,50.5965116 Z M167.689535,49.9802326 L167.689535,47.5767442 L163.005814,47.5767442 L163.005814,49.9802326 L167.689535,49.9802326 Z" id="Shape" stroke="#FFFFFF" stroke-width="0.45"></path>
            </g>
        </g>
    </g>
</svg>